<?xml version="1.0" standalone="no"?>
<!DOCTYPE svg PUBLIC "-//W3C//DTD SVG 20010904//EN"
 "http://www.w3.org/TR/2001/REC-SVG-20010904/DTD/svg10.dtd">
<svg version="1.0" xmlns="http://www.w3.org/2000/svg"
 width="272.000000pt" height="296.000000pt" viewBox="0 0 272.000000 296.000000"
 preserveAspectRatio="xMidYMid meet">

<g transform="translate(0.000000,296.000000) scale(0.100000,-0.100000)"
fill="#000000" stroke="none">
<path d="M733 2576 c-183 -45 -344 -210 -382 -394 -7 -35 -11 -262 -11 -685 0
-697 0 -692 63 -811 61 -115 191 -218 321 -252 77 -21 1327 -20 1405 1 179 47
330 200 370 375 7 28 11 286 11 696 0 566 -2 657 -16 705 -54 183 -197 322
-375 364 -54 12 -166 15 -699 14 -472 -1 -648 -4 -687 -13z m-22 -549 c27 -18
58 -68 151 -247 65 -124 143 -283 175 -353 32 -70 59 -123 61 -118 2 5 -2 43
-8 83 -6 40 -14 181 -17 313 -5 213 -4 244 11 273 42 81 142 94 203 28 l33
-36 0 -462 c0 -447 -1 -464 -20 -496 -49 -80 -208 -84 -268 -7 -23 29 -282
541 -326 644 -14 35 -28 62 -30 60 -2 -2 3 -56 10 -119 17 -153 29 -455 20
-513 -9 -58 -45 -103 -95 -118 -32 -10 -45 -8 -83 9 -79 35 -78 26 -78 531 0
488 1 493 62 531 49 29 153 28 199 -3z m919 8 c20 -11 35 -31 50 -72 80 -213
160 -438 175 -493 10 -36 21 -69 25 -73 5 -5 15 17 24 50 9 32 55 170 103 306
105 303 101 297 236 297 98 0 122 -10 146 -57 16 -30 16 -946 0 -976 -21 -42
-51 -57 -112 -57 -51 0 -62 4 -88 29 l-29 29 0 209 c0 183 6 292 25 438 6 49
12 64 -102 -255 -52 -146 -102 -280 -110 -298 -30 -64 -114 -82 -162 -34 -26
26 -133 297 -207 524 -15 48 -29 86 -31 84 -1 -1 4 -65 12 -142 18 -171 20
-492 3 -529 -16 -35 -57 -55 -114 -55 -39 0 -51 5 -80 34 l-34 34 0 472 c0
423 2 475 17 500 9 16 26 33 37 39 33 16 182 13 216 -4z"/>
</g>
</svg>
